<svg xmlns="http://www.w3.org/2000/svg" viewBox="0 0 826 270" width="826" height="270" fill="none">
  <!-- Top text: С Т У Д И Я -->
  <g fill="#000000">
    <path d="M205.26 34.3193C202.579 37.9298 198.832 40.6085 194.549 41.9784C190.265 43.3483 185.66 43.3403 181.381 41.9556C177.102 40.571 173.365 37.8793 170.696 34.2596C168.026 30.6398 166.56 26.2742 166.502 21.7771C166.444 17.2801 167.798 12.8781 170.372 9.19073C172.947 5.50337 176.614 2.71629 180.855 1.22179C185.097 -0.272714 189.701 -0.399388 194.019 0.859594C198.336 2.11858 202.15 4.69982 204.924 8.24002L200.642 11.5948C198.57 8.95026 195.721 7.02206 192.496 6.0816C189.271 5.14114 185.832 5.23577 182.663 6.35216C179.494 7.46856 176.756 9.5505 174.832 12.305C172.909 15.0594 171.898 18.3477 171.941 21.707C171.984 25.0663 173.08 28.3274 175.074 31.0314C177.067 33.7354 179.859 35.746 183.055 36.7804C186.252 37.8147 189.692 37.8207 192.892 36.7974C196.092 35.7741 198.89 33.7731 200.893 31.076L205.26 34.3193Z"/>
    <path d="M259 6H271.5V40.5H277V6H290V2H259V6Z"/>
    <path d="M350 2H346C348.833 8.33333 355.7 23.2 360.5 32C359.92 38.4 353.259 37.6667 350 36.5V41C356 43.4 360.833 39 362.5 36.5L378 2H373.5L362.5 26.5L350 2Z"/>
    <path d="M464 36.5H469.5V49.5H464V41.5H435V49.5H430V36.5H434.24C435.17 35.1298 436.517 31.9185 437.559 26.5059C438.65 20.8323 439.399 12.7872 439 2.01855L438.981 1.5H464V36.5ZM443.5 5.5V6C443.5 15.1672 442.587 22.2979 441.449 27.4805C440.309 32.6764 438.95 35.8846 438.08 37.2285L437.581 38H460V5.5H443.5Z"/>
    <path d="M533 1.5H528.5V41.5H532L557.5 9.5V42H562.5V1.5H558.5L533 33V1.5Z"/>
    <path d="M651 41H646.5V26.5H638.263L628.411 40.7842L628.263 41H620.438L621.115 40.1816L632.634 26.2617C630.943 25.6855 628.762 24.4827 626.907 22.7393C624.761 20.722 623 17.9324 623 14.5C623 7.85025 627.295 4.22334 630.361 2.66504C631.367 2.15431 632.478 2 633.542 2H651V41ZM638.893 5C635.966 5.00002 632.793 5.49082 630.562 7.63672C628.947 9.19068 627.5 11.3593 627.5 14C627.5 16.8194 629.149 19.1008 630.896 20.6738C632.971 22.5425 635.81 23 638.453 23H647V5H638.893Z"/>
  </g>
  <!-- Bottom text: К О Д А -->
  <g fill="#000000">
    <path d="M0.5 97.5V264H14.5V97.5H0.5Z"/>
    <path d="M108.5 97.5L28 178L114 264H134.5L48.5 178L129 97.5H108.5Z"/>
    <path d="M354.792 224.388C365.263 205.92 368.868 184.344 364.97 163.475C361.072 142.605 349.921 123.786 333.49 110.343C317.058 96.8991 296.403 89.6972 275.175 90.0098C253.947 90.3223 233.513 98.1291 217.484 112.05C201.456 125.972 190.864 145.111 187.582 166.086C184.3 187.061 188.538 208.521 199.548 226.674C210.558 244.826 227.631 258.502 247.749 265.284C267.866 272.066 289.734 271.518 309.487 263.737L303.302 248.036C287.253 254.358 269.485 254.803 253.14 249.293C236.794 243.782 222.923 232.671 213.977 217.922C205.032 203.173 201.588 185.737 204.255 168.695C206.921 151.653 215.527 136.102 228.55 124.791C241.573 113.48 258.176 107.137 275.424 106.884C292.671 106.63 309.453 112.481 322.804 123.404C336.154 134.326 345.214 149.617 348.381 166.573C351.548 183.529 348.62 201.059 340.112 216.065L354.792 224.388Z"/>
    <circle cx="334" cy="244.5" r="12.5" fill="#000000"/>
    <path d="M515.459 97.3018L580.829 249H596V264.5H420V249H437.169L501.54 97.3047L501.669 97H515.329L515.459 97.3018ZM507.54 121.303L453.04 248.303L452.741 249H563.259L562.96 248.303L508.46 121.303L508 120.232L507.54 121.303Z"/>
    <path d="M733.5 97.5L656.5 264H673L741.5 119L807.5 264H824.5L747 97.5H733.5Z"/>
  </g>
</svg>
